# xmcd
#
# Track frame offsets:
# 150
# 19732
# 35782
# 53656
# 73415
# 89895
# 106824
# 128533
# 152747
# 170801
# 195269
# 215583
# 237702
# 262338
# 295961
#
# Disc length: 4158 seconds
#
# Revision: 0
# Processed by: cddbd v1.5.1PL0 Copyright (c) Steve Scherf et al.
# Submitted via: Audion 3.0.2 (http://www.panic.com/audion/)
#
DISCID=eb103c0f
DTITLE=Various  - Broken
DYEAR=1900
DGENRE=
TTITLE0=Broken 
TTITLE1=Guitar
TTITLE2=Godsmack
TTITLE3=Godsmcak
TTITLE4=Godsmack
TTITLE5=Godsmack
TTITLE6=Godsmack
TTITLE7=Godsmack
TTITLE8=Godsmack
TTITLE9=Tool
TTITLE10=Rob Zombie
TTITLE11=tool
TTITLE12=tool
TTITLE13=tool
TTITLE14=t
EXTD=
EXTT0=
EXTT1=
EXTT2=
EXTT3=
EXTT4=
EXTT5=
EXTT6=
EXTT7=
EXTT8=
EXTT9=
EXTT10=
EXTT11=
EXTT12=
EXTT13=
EXTT14=
PLAYORDER=
